<?xml version="1.0" standalone="no"?>
<!DOCTYPE svg PUBLIC "-//W3C//DTD SVG 20010904//EN"
 "http://www.w3.org/TR/2001/REC-SVG-20010904/DTD/svg10.dtd">
<svg version="1.0" xmlns="http://www.w3.org/2000/svg"
 width="815.000000pt" height="788.000000pt" viewBox="0 0 415.000000 388.000000"
 preserveAspectRatio="xMidYMid meet">

<g transform="translate(0.000000,388.000000) scale(0.100000,-0.100000)"
fill="#FFFFFF" stroke="none">
<path d="M860 2515 c0 -168 1 -175 20 -175 19 0 20 7 20 93 0 85 2 96 23 115
33 31 80 29 106 -4 18 -23 21 -41 21 -115 0 -84 1 -89 21 -89 20 0 21 4 17
105 -3 98 -5 106 -30 131 -33 34 -106 38 -138 9 -20 -18 -20 -18 -20 43 0 55
-2 62 -20 62 -19 0 -20 -7 -20 -175z"/>
<path d="M589 2670 c-46 -13 -78 -41 -99 -84 -26 -55 -25 -101 3 -156 30 -59
64 -82 130 -88 66 -5 129 23 152 68 15 29 15 30 -9 30 -15 0 -30 -8 -36 -21
-7 -11 -27 -27 -46 -35 -101 -42 -200 61 -165 169 17 52 53 79 109 85 44 4 52
1 85 -28 24 -20 44 -30 59 -28 22 3 22 5 -12 40 -48 48 -111 66 -171 48z"/>
<path d="M1585 2603 c-11 -3 -28 -12 -37 -21 -16 -14 -18 -14 -18 1 0 10 -8
17 -20 17 -19 0 -20 -7 -20 -130 0 -123 1 -130 20 -130 19 0 20 7 20 93 0 85
2 96 23 115 33 31 80 29 106 -4 18 -23 21 -41 21 -115 0 -84 1 -89 21 -89 20
0 21 4 17 105 -3 96 -5 107 -28 129 -26 25 -71 37 -105 29z"/>
<path d="M2193 2599 c-42 -8 -63 -26 -80 -66 -40 -98 18 -193 119 -193 44 0
54 4 87 37 33 35 35 38 15 41 -13 2 -32 -7 -48 -22 -16 -16 -36 -26 -55 -26
-34 0 -78 35 -83 65 -3 19 3 20 100 23 l102 3 0 30 c0 37 -23 84 -47 94 -38
16 -79 21 -110 14z m92 -54 c46 -45 35 -55 -60 -55 -76 0 -84 2 -78 18 22 63
94 82 138 37z"/>
<path d="M1184 2566 c-30 -30 -34 -40 -34 -85 0 -58 18 -102 52 -125 31 -22
96 -20 136 4 32 20 32 20 32 0 0 -13 7 -20 20 -20 19 0 20 7 20 130 0 123 -1
130 -20 130 -14 0 -20 -7 -20 -21 l0 -20 -26 20 c-19 15 -41 21 -76 21 -43 0
-54 -4 -84 -34z m149 -16 c52 -41 44 -136 -15 -166 -81 -42 -158 50 -117 140
22 47 89 60 132 26z"/>
<path d="M1819 2572 c-27 -24 -33 -37 -37 -84 -3 -38 1 -64 12 -86 31 -60 112
-80 174 -42 l32 20 0 -39 c0 -85 -82 -122 -149 -65 -17 14 -37 24 -46 22 -24
-5 4 -50 45 -70 44 -22 82 -23 126 -2 56 27 64 53 64 224 0 143 -1 150 -20
150 -14 0 -20 -7 -20 -21 l0 -20 -26 20 c-41 33 -115 29 -155 -7z m152 -31
c47 -47 36 -126 -21 -156 -64 -33 -130 11 -130 87 0 51 43 98 90 98 22 0 41
-9 61 -29z"/>
<path d="M2860 2554 c-161 -55 -166 -70 -43 -133 43 -22 92 -49 109 -61 l31
-20 19 21 c19 21 19 21 -11 45 -17 13 -48 33 -70 43 l-40 20 80 0 c109 1 205
-21 300 -68 95 -48 203 -141 256 -224 79 -121 129 -318 129 -503 0 -82 3 -103
15 -108 25 -9 28 16 22 152 -9 211 -69 396 -168 523 -118 151 -299 250 -484
266 -70 6 -70 6 -37 20 24 10 32 19 32 38 0 33 -13 32 -140 -11z"/>
<path d="M2064 2030 c-47 -19 -67 -78 -40 -115 12 -16 9 -22 -25 -55 -33 -32
-39 -43 -39 -79 0 -34 6 -49 29 -72 26 -25 37 -29 86 -29 40 0 67 6 95 23 l40
22 15 -22 c11 -16 26 -23 48 -23 l31 0 -38 39 -39 40 27 45 c31 53 31 56 7 56
-11 0 -29 -15 -42 -36 l-22 -36 -59 59 c-73 71 -93 105 -78 133 15 28 70 28
77 0 3 -13 14 -20 29 -20 28 0 28 1 13 33 -18 40 -68 56 -115 37z m60 -219
c27 -27 45 -54 42 -60 -4 -6 -21 -18 -38 -27 -59 -30 -128 4 -128 64 0 25 41
72 62 72 8 0 35 -22 62 -49z"/>
<path d="M595 1978 c23 -179 101 -377 203 -511 80 -105 242 -207 383 -241 37
-9 110 -16 170 -17 97 0 103 -1 82 -16 -23 -16 -31 -47 -14 -58 13 -7 49 9
154 69 113 65 116 89 12 116 -27 7 -76 24 -107 38 -47 20 -61 22 -73 12 -34
-28 -8 -53 84 -81 40 -12 42 -13 20 -22 -47 -18 -259 -21 -326 -4 -71 19 -176
70 -246 120 -136 97 -253 313 -287 527 -15 93 -25 120 -46 120 -13 0 -15 -8
-9 -52z"/>
<path d="M2300 1225 c0 -168 1 -175 20 -175 18 0 20 7 20 89 0 107 18 141 76
141 60 0 74 -25 74 -135 0 -88 1 -95 20 -95 19 0 20 7 20 95 0 126 -14 153
-85 169 -20 4 -42 0 -67 -13 l-38 -19 0 59 c0 52 -2 59 -20 59 -19 0 -20 -7
-20 -175z"/>
<path d="M2024 1379 c-45 -13 -100 -78 -109 -127 -8 -47 7 -109 35 -144 60
-77 205 -76 260 2 25 36 25 40 -3 40 -12 0 -28 -9 -35 -21 -7 -11 -29 -27 -48
-35 -97 -41 -189 50 -164 160 13 57 48 88 107 93 45 5 53 2 86 -27 23 -20 45
-30 59 -28 21 3 21 4 -11 40 -45 52 -106 68 -177 47z"/>
<path d="M3007 1301 c-29 -15 -37 -16 -37 -5 0 8 -9 14 -20 14 -19 0 -20 -7
-20 -130 0 -123 1 -130 20 -130 18 0 20 7 20 83 0 93 13 127 53 141 70 25 105
-25 106 -151 1 -58 4 -73 16 -73 12 0 15 18 15 103 0 118 -10 140 -68 157 -47
13 -41 13 -85 -9z"/>
<path d="M3633 1309 c-50 -14 -83 -61 -83 -120 0 -88 46 -139 125 -139 55 0
115 39 115 74 0 15 -35 4 -62 -19 -16 -14 -38 -25 -49 -25 -28 0 -75 26 -83
45 -16 43 -10 45 99 45 l105 0 0 28 c0 32 -31 87 -57 100 -30 15 -76 20 -110
11z m82 -35 c14 -6 45 -53 45 -69 0 -3 -38 -5 -85 -5 -95 0 -106 10 -60 55 24
25 65 32 100 19z"/>
<path d="M2641 1294 c-47 -33 -65 -119 -36 -174 36 -69 123 -93 179 -49 l26
20 0 -20 c0 -14 6 -21 20 -21 19 0 20 7 20 130 0 123 -1 130 -20 130 -14 0
-20 -7 -20 -22 l0 -21 -23 21 c-29 27 -110 30 -146 6z m122 -26 c34 -18 46
-40 47 -84 1 -109 -136 -141 -170 -39 -29 89 46 164 123 123z"/>
<path d="M3271 1294 c-47 -33 -65 -119 -36 -174 36 -69 123 -93 179 -49 l26
20 0 -44 c0 -33 -6 -49 -23 -65 -33 -31 -90 -30 -123 3 -28 28 -54 33 -54 10
0 -48 99 -87 165 -65 68 23 75 43 75 221 0 152 -1 159 -20 159 -14 0 -20 -7
-20 -21 l0 -20 -26 20 c-33 26 -109 28 -143 5z m122 -26 c34 -18 46 -40 47
-84 1 -109 -136 -141 -170 -39 -29 89 46 164 123 123z"/>
</g>
</svg>
