<?xml version="1.0" standalone="no"?>
<!DOCTYPE svg PUBLIC "-//W3C//DTD SVG 20010904//EN"
 "http://www.w3.org/TR/2001/REC-SVG-20010904/DTD/svg10.dtd">
<svg version="1.0" xmlns="http://www.w3.org/2000/svg"
 width="512.000000pt" height="512.000000pt" viewBox="0 0 512.000000 512.000000"
 preserveAspectRatio="xMidYMid meet">

<g transform="translate(0.000000,512.000000) scale(0.100000,-0.100000)"
fill="#345f13" stroke="none">
<path d="M4200 4568 c-25 -13 -55 -38 -67 -57 -21 -32 -23 -45 -23 -192 l0
-158 -164 -3 c-180 -3 -192 -7 -240 -72 -29 -39 -29 -133 0 -172 48 -65 60
-69 240 -72 l164 -3 0 -158 c0 -147 2 -160 23 -192 32 -49 105 -83 158 -74 53
9 115 64 129 113 5 21 10 99 10 174 l0 137 159 3 c177 3 191 8 239 78 45 66
23 159 -51 214 -26 19 -45 21 -188 24 l-159 3 0 137 c0 75 -5 153 -10 172 -17
62 -95 120 -160 120 -9 0 -36 -10 -60 -22z"/>
<path d="M1849 4466 c-25 -6 -66 -24 -90 -38 -83 -49 -122 -104 -243 -346 -63
-126 -122 -232 -131 -236 -9 -3 -144 -6 -299 -6 -160 0 -308 -5 -342 -11 -213
-39 -404 -219 -459 -434 -13 -51 -15 -212 -15 -1208 0 -1277 -4 -1205 68
-1341 70 -134 187 -233 337 -284 l80 -27 1795 0 c1475 0 1805 2 1850 14 210
51 386 227 435 432 13 55 15 204 15 1027 0 869 -2 967 -16 998 -24 50 -68 77
-133 82 -66 4 -111 -20 -145 -78 -21 -34 -21 -49 -26 -1006 l-5 -971 -30 -49
c-37 -59 -107 -108 -175 -123 -72 -15 -3448 -15 -3520 0 -68 15 -138 64 -175
123 l-30 49 -3 1139 -2 1139 21 49 c12 27 39 66 61 86 76 68 77 68 448 74
l335 5 66 32 c102 50 134 93 260 345 61 123 118 231 127 241 14 16 54 17 564
17 526 0 550 1 587 20 22 11 49 36 62 56 48 78 19 183 -62 224 -37 19 -60 20
-601 19 -413 0 -575 -4 -609 -13z"/>
<path d="M2435 3299 c-224 -29 -426 -129 -591 -293 -126 -126 -204 -259 -261
-443 -24 -81 -27 -103 -27 -263 -1 -153 2 -185 22 -260 48 -173 129 -315 257
-448 131 -138 287 -230 475 -280 133 -35 352 -37 483 -4 195 49 357 142 492
284 129 134 211 279 256 448 32 125 37 324 11 450 -42 203 -130 369 -272 511
-172 173 -366 269 -605 298 -101 12 -140 12 -240 0z m300 -335 c86 -22 193
-77 266 -138 270 -223 329 -622 135 -914 -126 -189 -352 -312 -576 -312 -289
0 -562 196 -654 470 -38 111 -46 262 -22 372 63 281 289 491 581 539 65 10
194 2 270 -17z"/>
</g>
</svg>
