<?xml version="1.0" standalone="no"?>
<!DOCTYPE svg PUBLIC "-//W3C//DTD SVG 20010904//EN"
 "http://www.w3.org/TR/2001/REC-SVG-20010904/DTD/svg10.dtd">
<svg version="1.0" xmlns="http://www.w3.org/2000/svg"
 width="360.000000pt" height="334.000000pt" viewBox="0 0 360.000000 334.000000"
 preserveAspectRatio="xMidYMid meet">

<g transform="translate(0.000000,334.000000) scale(0.100000,-0.100000)"
fill="#000000" stroke="none">
<path d="M461 2854 c-28 -35 -26 -69 4 -99 24 -25 27 -25 189 -25 91 0 167 -3
169 -7 5 -7 347 -1271 347 -1279 0 -2 -9 -4 -20 -4 -34 0 -93 -29 -129 -63
-47 -45 -71 -101 -71 -170 0 -146 106 -237 277 -237 62 0 63 0 52 -22 -17 -32
-15 -137 5 -182 43 -102 118 -156 225 -164 54 -3 76 0 119 18 102 44 170 157
159 264 -3 28 -8 59 -12 69 -7 16 8 17 225 17 l232 0 -6 -26 c-16 -64 -17 -85
-6 -138 14 -70 58 -130 125 -171 43 -27 57 -30 130 -30 73 0 87 3 130 30 104
64 152 174 124 283 -14 55 -13 57 9 79 28 28 29 72 2 101 l-21 22 -768 0
c-793 0 -820 1 -841 40 -18 33 -11 79 15 105 l24 25 756 0 c659 0 760 2 793
15 44 19 79 50 98 87 17 32 204 837 204 876 0 40 -41 103 -80 123 -32 17 -63
19 -376 19 -187 0 -597 3 -911 7 l-571 6 -47 178 c-73 272 -82 279 -353 279
l-181 0 -20 -26z m983 -606 c3 -13 12 -79 21 -148 8 -69 18 -135 20 -147 l5
-23 -147 0 -148 0 -43 163 c-24 89 -43 165 -42 170 0 4 74 7 165 7 163 0 165
0 169 -22z m443 12 l43 0 0 -165 0 -165 -145 0 -144 0 -6 33 c-13 74 -35 253
-35 280 l0 30 122 -6 c66 -4 141 -7 165 -7z m497 -162 c-13 -90 -23 -164 -23
-165 -1 -2 -64 -3 -141 -3 l-140 0 0 165 0 165 163 0 163 0 -22 -162z m461
140 c-3 -13 -20 -86 -38 -163 l-32 -140 -131 -3 -130 -3 22 163 c12 90 23 164
23 166 1 1 66 2 146 2 l145 0 -5 -22z m-1316 -616 c11 -87 21 -164 21 -170 0
-18 -204 -16 -219 1 -9 12 -91 298 -91 319 0 4 60 8 134 8 l133 0 22 -158z
m396 -12 l0 -165 -111 -3 -110 -3 -18 138 c-10 76 -21 153 -23 171 l-6 33 134
-3 134 -3 0 -165z m415 158 c0 -6 -10 -83 -21 -170 l-22 -158 -108 0 -109 0 0
170 0 170 130 0 c92 0 130 -3 130 -12z m397 0 c-2 -7 -19 -78 -37 -158 -18
-80 -37 -151 -43 -157 -6 -9 -41 -13 -108 -13 -55 0 -99 2 -99 4 0 15 41 314
45 324 3 9 38 12 126 12 93 0 120 -3 116 -12z m-1137 -825 c87 -78 9 -218
-104 -189 -35 9 -72 48 -79 83 -20 105 104 176 183 106z m943 7 c59 -47 56
-143 -7 -181 -91 -55 -199 26 -166 126 16 48 53 75 105 75 27 0 51 -7 68 -20z"/>
</g>
</svg>
