<?xml version="1.0" standalone="no"?>
<!DOCTYPE svg PUBLIC "-//W3C//DTD SVG 20010904//EN"
 "http://www.w3.org/TR/2001/REC-SVG-20010904/DTD/svg10.dtd">
<svg version="1.0" xmlns="http://www.w3.org/2000/svg"
 width="512.000000pt" height="512.000000pt" viewBox="0 0 512.000000 512.000000"
 preserveAspectRatio="xMidYMid meet">

<g transform="translate(0.000000,512.000000) scale(0.100000,-0.100000)"
fill="#2C2C2C" stroke="none">
<path d="M2874 5095 c-98 -58 -99 -197 -4 -266 14 -10 86 -34 161 -53 695
-177 1285 -665 1593 -1318 65 -136 123 -303 161 -458 25 -100 33 -120 66 -155
37 -39 39 -40 106 -40 80 0 112 18 143 81 27 53 25 77 -10 218 -252 996 -1046
1773 -2043 2000 -93 22 -125 20 -173 -9z"/>
<path d="M1005 5091 c-208 -53 -405 -180 -610 -393 -254 -263 -389 -528 -389
-763 0 -91 4 -113 47 -253 90 -291 182 -518 333 -822 277 -555 586 -983 1038
-1436 452 -452 881 -762 1436 -1038 394 -195 870 -371 1040 -384 226 -16 524
129 793 388 318 305 466 632 401 883 -70 272 -387 546 -783 677 -169 56 -257
72 -401 72 -96 1 -143 -4 -203 -20 -132 -36 -187 -72 -342 -224 l-141 -138
-65 38 c-559 327 -1086 845 -1440 1414 l-81 130 129 132 c136 137 180 193 214
273 73 171 66 433 -18 668 -86 239 -264 506 -435 653 -170 145 -336 190 -523
143z m245 -332 c71 -41 184 -157 253 -261 190 -286 261 -593 175 -762 -11 -22
-103 -124 -203 -226 -236 -239 -233 -228 -110 -446 297 -524 718 -1003 1205
-1373 199 -152 473 -327 605 -387 46 -22 65 -25 103 -19 45 7 57 16 233 191
110 109 199 189 221 198 228 96 693 -55 938 -304 108 -110 137 -195 105 -306
-73 -255 -389 -582 -680 -704 -114 -47 -163 -49 -291 -10 -658 199 -1276 536
-1835 1001 -160 133 -485 459 -619 619 -457 550 -791 1157 -989 1799 -45 147
-49 182 -25 262 99 333 551 757 809 759 38 0 63 -8 105 -31z"/>
<path d="M2605 4210 c-48 -11 -82 -38 -105 -84 -23 -49 -25 -84 -6 -129 27
-63 61 -83 199 -116 232 -56 420 -143 603 -282 109 -83 257 -234 338 -347 115
-162 221 -409 257 -600 19 -103 71 -160 151 -169 79 -9 152 46 172 130 4 16
-4 74 -20 144 -83 370 -257 679 -535 948 -249 240 -538 401 -859 478 -134 32
-158 36 -195 27z"/>
</g>
</svg>
