<?xml version="1.0" standalone="no"?>
<!DOCTYPE svg PUBLIC "-//W3C//DTD SVG 20010904//EN"
 "http://www.w3.org/TR/2001/REC-SVG-20010904/DTD/svg10.dtd">
<svg version="1.0" xmlns="http://www.w3.org/2000/svg"
 width="512.000000pt" height="512.000000pt" viewBox="0 0 512.000000 512.000000"
 preserveAspectRatio="xMidYMid meet">

<g transform="translate(0.000000,512.000000) scale(0.100000,-0.100000)"
fill="#2C2C2C" stroke="none">
<path d="M250 5106 c-78 -22 -157 -83 -205 -160 -37 -61 -45 -122 -45 -369 0
-248 6 -285 45 -301 9 -3 894 -6 1966 -6 l1950 0 24 26 c32 34 32 75 1 111
l-24 28 -1896 3 -1896 2 0 184 c0 196 5 223 48 270 56 60 -108 56 2341 56
1565 0 2258 -3 2278 -11 15 -5 41 -22 57 -37 51 -48 56 -74 56 -277 l0 -185
-254 0 c-159 0 -265 -4 -285 -11 -43 -15 -66 -60 -52 -101 20 -58 17 -57 373
-58 179 0 334 3 343 6 39 16 45 53 45 301 0 257 -7 308 -52 378 -49 76 -121
129 -202 151 -72 19 -4547 19 -4616 0z"/>
<path d="M390 4767 c-52 -26 -60 -89 -18 -134 18 -20 32 -23 93 -23 77 0 110
14 126 56 13 35 -12 91 -46 104 -37 14 -125 12 -155 -3z"/>
<path d="M830 4773 c-61 -22 -79 -95 -35 -138 21 -22 33 -25 100 -25 67 0 79
3 100 25 42 41 31 105 -22 133 -22 12 -115 15 -143 5z"/>
<path d="M1245 4769 c-33 -19 -45 -41 -45 -80 0 -58 34 -79 125 -79 65 0 75 3
99 26 33 34 34 74 2 111 -21 24 -32 28 -92 30 -40 2 -78 -1 -89 -8z"/>
<path d="M53 4085 c-17 -8 -36 -22 -42 -34 -8 -14 -11 -569 -11 -1883 0 -1976
-1 -1919 45 -1994 50 -79 127 -138 210 -160 74 -20 4536 -20 4610 0 83 22 160
81 210 160 46 75 45 18 45 1996 0 2044 4 1896 -58 1918 -35 12 -85 -6 -101
-37 -8 -14 -11 -569 -11 -1881 0 -1558 -2 -1866 -14 -1893 -16 -39 -61 -82
-99 -96 -20 -8 -713 -11 -2278 -11 -1888 0 -2255 2 -2282 14 -39 16 -82 61
-96 99 -8 20 -11 599 -11 1890 0 2041 4 1893 -58 1915 -20 7 -37 6 -59 -3z"/>
<path d="M2459 3919 c-565 -45 -1030 -454 -1151 -1014 -12 -59 -21 -150 -25
-262 l-6 -171 -41 -6 c-107 -16 -216 -100 -264 -204 l-27 -57 -3 -348 c-3
-389 0 -414 61 -503 42 -61 99 -106 174 -135 54 -22 72 -23 273 -24 231 0 247
3 297 57 41 44 43 65 43 454 l0 375 -25 24 c-27 27 -79 33 -106 12 -37 -28
-39 -49 -39 -401 l0 -346 -185 0 c-214 0 -244 8 -292 82 l-28 42 0 341 0 341
27 42 c49 74 60 76 346 82 l254 5 24 28 c29 34 31 76 5 108 -18 23 -27 24
-168 29 l-148 5 -3 100 c-18 553 312 1003 842 1147 70 19 106 22 266 22 160 0
196 -3 266 -22 325 -88 577 -290 723 -579 87 -174 126 -357 119 -568 l-3 -100
-148 -5 c-141 -5 -150 -6 -168 -29 -26 -32 -24 -74 5 -108 l24 -28 254 -5
c286 -6 297 -8 346 -82 l27 -42 0 -341 0 -341 -28 -42 c-48 -74 -78 -82 -292
-82 l-185 0 0 346 c0 352 -2 373 -39 401 -27 21 -79 15 -106 -12 l-25 -24 0
-375 c0 -389 2 -410 43 -454 40 -43 76 -54 189 -60 l108 -5 0 -52 c0 -115 -53
-208 -146 -255 -45 -22 -63 -25 -215 -28 l-166 -4 -13 31 c-17 43 -103 118
-148 131 -48 13 -456 13 -504 0 -50 -14 -132 -90 -153 -142 -9 -24 -17 -68
-17 -98 0 -99 46 -177 133 -225 l54 -30 235 0 c228 0 236 1 280 24 58 30 88
57 110 102 l19 36 178 6 c197 6 240 15 326 70 127 82 197 218 197 387 l0 57
39 6 c106 14 221 101 269 205 l27 57 0 370 0 370 -27 57 c-48 104 -157 188
-264 204 l-41 6 -6 171 c-10 292 -67 484 -212 707 -202 314 -579 540 -940 565
-44 3 -91 7 -105 9 -14 1 -68 -1 -121 -5z m498 -3091 c30 -34 34 -55 19 -92
-20 -48 -53 -56 -246 -56 -173 0 -223 8 -240 40 -17 32 -11 82 12 107 21 23
25 23 228 23 201 0 207 -1 227 -22z"/>
</g>
</svg>
