<svg width="26" height="21" viewBox="0 0 26 21" fill="none" xmlns="http://www.w3.org/2000/svg">
<path d="M8.95691 10.7944C6.18347 10.7944 3.95691 8.56787 3.95691 5.79443C3.95691 3.06006 6.18347 0.794434 8.95691 0.794434C11.6913 0.794434 13.9569 3.06006 13.9569 5.79443C13.9569 8.56787 11.6913 10.7944 8.95691 10.7944ZM12.4335 12.0444C13.996 12.0444 15.4022 12.7476 16.3397 13.8413L13.3319 16.8491L13.0194 17.1616L12.9803 17.5913L12.7069 19.9741C12.6678 20.2476 12.7069 20.5601 12.785 20.7944H2.08191C1.02722 20.7944 0.206909 19.9741 0.206909 18.9194V17.3179C0.206909 14.4272 2.55066 12.0444 5.44128 12.0444H6.10535C6.96472 12.4741 7.94128 12.6694 8.95691 12.6694C9.97253 12.6694 10.91 12.4741 11.7694 12.0444H12.4335ZM14.1913 17.7476L19.5819 12.3569L22.3944 15.1694L17.0038 20.5601L14.621 20.7944C14.2303 20.8726 13.9178 20.521 13.9569 20.1304L14.1913 17.7476ZM24.9335 11.3022C25.285 11.6929 25.285 12.2788 24.9335 12.6304L23.2928 14.271L20.4803 11.4585L20.6366 11.3022L22.121 9.81787C22.4725 9.46631 23.0585 9.46631 23.4491 9.81787L24.9335 11.3022Z" fill="white"/>
</svg>
