<svg width="129" height="129" viewBox="0 0 129 129" fill="none" xmlns="http://www.w3.org/2000/svg">
<path d="M34 35.75L72 25L104 57L93.25 95C91.75 100 87.75 104.25 82.75 105.75L13 129L9.25 125.5L46.75 88C48.25 88.75 50 89 52 89C58.5 89 64 83.75 64 77C64 70.5 58.5 65 52 65C45.25 65 40 70.5 40 77C40 79 40.25 80.75 41 82.25L3.5 119.75L0 116L23.25 46.25C24.75 41.25 29 37.25 34 35.75ZM124.25 19.75C129 24.25 129 32 124.25 36.75L110.25 50.75L78.25 18.75L92.25 4.75C97 0 104.75 0 109.25 4.75L124.25 19.75Z" fill="black"/>
</svg>
