<?xml version="1.0" standalone="no"?>
<!DOCTYPE svg PUBLIC "-//W3C//DTD SVG 20010904//EN"
 "http://www.w3.org/TR/2001/REC-SVG-20010904/DTD/svg10.dtd">
<svg version="1.0" xmlns="http://www.w3.org/2000/svg"
 width="303.000000pt" height="285.000000pt" viewBox="0 0 303.000000 285.000000"
 preserveAspectRatio="xMidYMid meet">

<g transform="translate(0.000000,285.000000) scale(0.100000,-0.100000)"
fill="#345f13" stroke="none">
<path d="M640 2583 c-100 -35 -172 -109 -204 -209 -15 -44 -16 -142 -14 -916
3 -861 3 -867 24 -895 35 -47 82 -73 133 -73 39 0 69 13 191 81 80 44 156 86
170 92 18 9 231 13 755 17 l730 5 50 25 c64 31 124 91 155 155 l25 50 0 725 0
725 -25 50 c-31 64 -91 124 -155 155 l-50 25 -870 2 c-772 2 -875 0 -915 -14z
m1813 -123 c21 -14 50 -43 65 -64 l27 -39 0 -717 0 -717 -27 -39 c-15 -21 -44
-50 -65 -64 l-37 -25 -730 -5 -731 -5 -60 -28 c-33 -15 -112 -57 -176 -92
-115 -65 -154 -76 -177 -53 -19 19 -17 1706 2 1751 16 41 70 95 111 113 24 11
193 13 896 11 l865 -2 37 -25z"/>
<path d="M1471 2220 c-127 -27 -234 -149 -248 -284 -5 -48 -3 -55 18 -70 13
-9 29 -16 36 -16 25 0 53 39 53 75 0 20 9 52 19 73 71 138 248 163 348 49 41
-46 56 -97 51 -163 -7 -78 -45 -130 -125 -170 -120 -59 -133 -82 -133 -243 0
-126 8 -151 50 -151 40 0 50 26 50 131 0 55 4 109 10 119 5 10 34 30 64 43 73
34 130 88 163 155 38 77 39 190 4 269 -27 61 -103 136 -164 163 -52 23 -138
31 -196 20z"/>
<path d="M1485 1215 c-50 -49 -15 -135 55 -135 19 0 40 9 55 25 16 15 25 36
25 55 0 19 -9 40 -25 55 -15 16 -36 25 -55 25 -19 0 -40 -9 -55 -25z"/>
</g>
</svg>
