<svg width="27" height="23" viewBox="0 0 27 23" fill="none" xmlns="http://www.w3.org/2000/svg">
<path d="M25.4689 10.6282C25.592 10.7551 25.6715 10.9243 25.7074 11.1358C25.6599 11.305 25.6138 11.4319 25.4829 11.5588L24.5633 12.574C24.4324 12.7009 24.2606 12.7855 24.049 12.7855C23.8797 12.7855 23.7117 12.7432 23.5886 12.6163L22.9718 12.0241L22.7013 20.9074C22.6782 21.6688 22.0253 22.2611 21.3059 22.2611L5.05457 22.2611C4.29279 22.2611 3.71833 21.6688 3.74151 20.9074L4.01198 12.0241L3.31681 12.6163C3.18599 12.7432 3.01541 12.7855 2.84613 12.7855C2.63452 12.7855 2.46782 12.7009 2.34472 12.574L1.48689 11.5588C1.36379 11.4319 1.32533 11.305 1.33048 11.1358C1.33692 10.9243 1.42671 10.7551 1.55754 10.6282L12.6828 1.06803C12.9445 0.814218 13.4588 0.60271 13.8396 0.60271C14.1782 0.60271 14.6796 0.814218 14.9258 1.06803L19.1279 4.83286L19.1949 2.63318C19.2052 2.29477 19.5118 1.95636 19.8927 1.95636L22.6012 1.95636C22.9398 1.95636 23.268 2.29477 23.2577 2.63318L23.0813 8.42848L25.4689 10.6282ZM13.613 8.04777C12.0894 8.04777 10.8671 9.27451 10.822 10.7551C10.7756 12.2779 11.9246 13.4624 13.4481 13.4624C14.9293 13.4624 16.1927 12.2779 16.2391 10.7551C16.2842 9.27451 15.0942 8.04777 13.613 8.04777ZM18.0026 19.5538C18.3412 19.5538 18.6888 19.2577 18.7003 18.8769C18.7673 16.6773 16.9619 14.816 14.7612 14.816H12.0526C9.8096 14.816 7.93313 16.6773 7.86615 18.8769C7.85456 19.2577 8.14179 19.5538 8.52268 19.5538H18.0026Z" fill="#345F13"/>
</svg>
