<?xml version="1.0" standalone="no"?>
<!DOCTYPE svg PUBLIC "-//W3C//DTD SVG 20010904//EN"
 "http://www.w3.org/TR/2001/REC-SVG-20010904/DTD/svg10.dtd">
<svg version="1.0" xmlns="http://www.w3.org/2000/svg"
 width="406.000000pt" height="342.000000pt" viewBox="0 0 406.000000 342.000000"
 preserveAspectRatio="xMidYMid meet">

<g transform="translate(0.000000,342.000000) scale(0.100000,-0.100000)"
fill="#000000" stroke="none">
<path d="M2256 2874 c-165 -30 -331 -119 -456 -244 -252 -252 -327 -620 -193
-954 l35 -89 -350 -351 c-192 -193 -358 -366 -367 -385 -9 -19 -19 -60 -22
-90 -17 -184 194 -328 358 -246 19 10 192 175 385 367 l351 350 89 -35 c334
-134 702 -59 954 193 345 344 345 896 0 1240 -207 208 -493 296 -784 244z
m379 -178 c113 -36 198 -89 290 -181 91 -91 144 -175 182 -290 23 -71 26 -96
26 -215 0 -119 -3 -144 -26 -215 -38 -115 -91 -199 -182 -290 -91 -91 -175
-144 -290 -182 -71 -23 -96 -26 -215 -26 -119 0 -144 3 -215 26 -115 38 -199
91 -290 182 -91 91 -144 175 -182 290 -23 71 -26 96 -26 215 0 119 3 144 26
215 38 115 91 199 182 290 112 112 235 179 379 205 89 16 251 5 341 -24z
m-835 -1308 l62 -61 -334 -334 c-183 -183 -343 -336 -356 -339 -51 -14 -112
39 -112 98 0 16 93 115 337 360 186 186 338 338 340 338 1 0 29 -28 63 -62z"/>
<path d="M2365 2625 c-55 -54 -15 -135 67 -135 239 0 468 -229 468 -468 0 -82
81 -122 135 -67 30 29 33 82 10 190 -50 238 -252 440 -490 490 -108 23 -161
20 -190 -10z"/>
</g>
</svg>
