<svg width="20" height="23" viewBox="0 0 20 23" fill="none" xmlns="http://www.w3.org/2000/svg">
<path d="M10.0494 11.6031C7.04442 11.6031 4.70536 9.19171 4.79681 6.18809C4.88697 3.22676 7.37416 0.773096 10.3792 0.773096C13.3419 0.773096 15.722 3.22676 15.6318 6.18809C15.5404 9.19171 13.0121 11.6031 10.0494 11.6031ZM13.7751 12.9568C16.9071 12.9568 19.4103 15.5374 19.315 18.6679L19.2621 20.4024C19.2274 21.5447 18.2692 22.4331 17.1688 22.4331L2.27063 22.4331C1.12788 22.4331 0.266122 21.5447 0.300899 20.4024L0.353709 18.6679C0.449025 15.5374 3.06705 12.9568 6.19904 12.9568L6.91855 12.9568C7.83552 13.4222 8.88718 13.6337 9.98761 13.6337C11.088 13.6337 12.1103 13.4222 13.0556 12.9568H13.7751Z" fill="#345F13"/>
</svg>
