<?xml version="1.0" standalone="no"?>
<!DOCTYPE svg PUBLIC "-//W3C//DTD SVG 20010904//EN"
 "http://www.w3.org/TR/2001/REC-SVG-20010904/DTD/svg10.dtd">
<svg version="1.0" xmlns="http://www.w3.org/2000/svg"
 width="367.000000pt" height="388.000000pt" viewBox="0 0 367.000000 388.000000"
 preserveAspectRatio="xMidYMid meet">

<g transform="translate(0.000000,388.000000) scale(0.100000,-0.100000)"
fill="#345f13" stroke="none">
<path d="M1659 3172 c-66 -34 -105 -88 -119 -161 -6 -30 -10 -229 -10 -457 l0
-404 -404 0 c-228 0 -427 -4 -457 -10 -73 -14 -127 -53 -161 -119 -37 -71 -37
-131 0 -202 34 -66 88 -105 161 -119 30 -6 229 -10 457 -10 l404 0 0 -404 c0
-228 4 -427 10 -457 14 -73 53 -127 119 -161 71 -37 131 -37 202 0 66 34 105
88 119 161 6 30 10 229 10 457 l0 404 404 0 c228 0 427 4 457 10 73 14 127 53
161 119 37 71 37 131 0 202 -34 66 -88 105 -161 119 -30 6 -229 10 -457 10
l-404 0 0 404 c0 228 -4 427 -10 457 -6 30 -23 72 -38 94 -36 52 -118 95 -182
95 -33 0 -64 -9 -101 -28z"/>
</g>
</svg>
