<?xml version="1.0" standalone="no"?>
<!DOCTYPE svg PUBLIC "-//W3C//DTD SVG 20010904//EN"
 "http://www.w3.org/TR/2001/REC-SVG-20010904/DTD/svg10.dtd">
<svg version="1.0" xmlns="http://www.w3.org/2000/svg"
 width="343.000000pt" height="321.000000pt" viewBox="0 0 343.000000 321.000000"
 preserveAspectRatio="xMidYMid meet">

<g transform="translate(0.000000,321.000000) scale(0.100000,-0.100000)"
fill="#345f13" stroke="none">
<path d="M1617 2876 c-20 -8 -52 -25 -70 -38 -72 -56 -89 -60 -215 -53 -112 7
-118 6 -152 -17 -19 -13 -49 -46 -67 -73 -82 -127 -75 -121 -164 -150 -46 -15
-96 -36 -112 -47 -37 -26 -66 -91 -67 -145 0 -96 -17 -136 -83 -200 -83 -80
-104 -126 -89 -196 5 -28 21 -80 34 -114 l23 -63 -23 -62 c-13 -35 -29 -87
-34 -115 -15 -70 6 -116 88 -197 65 -64 84 -105 84 -181 0 -64 20 -117 55
-150 l32 -31 -104 -179 c-56 -99 -103 -187 -103 -196 0 -33 25 -38 194 -41
l168 -3 81 -139 c86 -146 106 -168 133 -151 9 6 69 101 133 212 64 111 119
204 123 208 3 4 29 -9 58 -29 51 -35 106 -56 145 -56 27 0 98 33 140 66 20 15
39 24 43 20 4 -4 61 -100 127 -214 133 -229 144 -239 188 -180 13 18 54 86 91
151 l68 117 167 0 c172 0 191 4 191 41 0 10 -47 99 -104 198 l-104 180 25 16
c35 23 60 87 68 175 8 90 18 111 87 175 90 84 105 139 67 243 -41 113 -42 123
-19 188 59 158 52 205 -45 298 -77 75 -83 86 -91 178 -9 102 -32 151 -89 187
-25 16 -62 32 -82 36 -73 13 -110 41 -152 112 -76 130 -105 143 -281 128 l-85
-7 -70 46 c-65 43 -120 66 -155 66 -8 -1 -32 -7 -53 -14z m158 -121 c94 -62
130 -72 216 -57 38 7 80 12 93 12 35 0 72 -34 107 -101 42 -78 87 -115 173
-140 38 -12 80 -28 93 -36 26 -17 43 -69 43 -132 0 -81 19 -121 97 -199 85
-86 90 -107 48 -210 -15 -38 -25 -81 -25 -112 0 -31 10 -74 25 -112 42 -102
37 -122 -48 -209 -79 -80 -97 -120 -97 -212 0 -57 -16 -102 -43 -120 -12 -7
-53 -23 -92 -35 -87 -26 -132 -63 -174 -141 -17 -33 -44 -70 -59 -82 -28 -22
-22 -22 -173 -3 -59 8 -101 -6 -185 -62 -85 -55 -114 -56 -184 -8 -29 20 -74
46 -99 57 -42 18 -51 19 -142 7 -120 -16 -130 -11 -189 90 -49 84 -95 120
-181 145 -35 9 -73 24 -86 32 -26 17 -43 69 -43 133 0 78 -18 118 -78 178
-104 105 -108 118 -66 228 33 87 33 141 0 228 -40 105 -38 115 48 205 79 83
96 118 96 201 0 109 19 132 143 170 79 25 125 63 166 139 36 68 72 101 109
101 13 0 54 -5 89 -12 77 -14 131 -3 195 40 22 15 52 35 67 44 43 29 80 22
156 -27z m724 -1890 c45 -77 81 -143 81 -147 0 -5 -65 -8 -145 -8 l-144 0 -74
-126 -74 -125 -80 138 c-44 76 -85 147 -91 158 -10 19 -7 20 88 20 l99 0 35
34 c19 19 52 63 73 99 32 55 46 69 88 88 27 13 53 20 57 16 3 -4 43 -70 87
-147z m-1484 122 c27 -15 50 -41 73 -82 39 -70 66 -101 106 -122 30 -16 111
-20 164 -9 17 4 32 5 32 2 0 -3 -22 -43 -49 -88 -26 -46 -67 -116 -90 -156
l-43 -74 -72 124 -71 123 -148 3 c-81 1 -147 5 -147 9 0 3 37 71 83 149 90
158 93 160 162 121z"/>
<path d="M1516 2574 c-162 -36 -280 -98 -395 -208 -123 -118 -212 -277 -240
-430 -15 -84 -14 -242 4 -324 54 -258 244 -484 487 -581 404 -161 849 13 1033
404 60 127 78 206 78 345 0 124 -16 209 -61 315 -42 100 -73 140 -107 140 -45
0 -43 -30 9 -137 233 -482 -112 -1039 -643 -1038 -129 0 -218 21 -327 74 -91
45 -207 139 -255 208 -22 30 -22 30 -1 19 12 -6 75 -11 156 -11 109 0 138 3
150 16 9 8 16 22 16 30 0 13 4 13 28 0 69 -35 180 -47 419 -44 216 3 234 4
260 24 45 32 67 87 55 134 -7 29 -6 40 3 43 23 9 48 78 42 119 -4 31 0 47 20
76 21 31 24 46 21 89 -4 42 -1 56 14 70 10 9 23 34 29 55 9 33 7 46 -11 83
-33 67 -58 75 -249 75 l-161 0 0 124 c0 112 -2 126 -23 157 -31 47 -61 59
-144 59 -89 0 -93 -5 -93 -127 -1 -129 -40 -199 -132 -237 -58 -24 -78 -21
-78 12 0 15 -5 33 -12 40 -17 17 -299 17 -316 0 -9 -9 -12 -110 -12 -392 -1
-350 -2 -379 -16 -361 -26 32 -71 136 -90 206 -24 88 -25 271 -1 359 64 234
247 430 471 505 185 62 371 50 559 -37 l69 -32 19 23 c15 18 16 27 8 43 -13
25 -130 79 -219 103 -92 24 -277 29 -364 9z m265 -204 c17 -10 19 -23 19 -151
0 -78 5 -149 10 -160 10 -18 23 -19 193 -19 149 0 187 -3 205 -16 46 -32 17
-74 -52 -74 -25 0 -38 -6 -46 -20 -14 -27 -2 -46 41 -68 18 -9 35 -24 37 -33
5 -27 -26 -49 -67 -49 -71 0 -82 -52 -18 -83 62 -31 47 -87 -23 -87 -70 0 -85
-58 -23 -87 40 -19 52 -45 33 -68 -10 -12 -54 -15 -249 -15 -242 0 -289 6
-373 42 l-48 20 0 243 0 243 50 11 c149 32 238 139 248 298 4 73 7 83 24 83
11 0 28 -5 39 -10z m-451 -610 l0 -320 -85 0 -85 0 0 320 0 320 85 0 85 0 0
-320z"/>
<path d="M2157 2383 c-24 -24 34 -113 74 -113 21 0 39 20 39 45 0 44 -86 95
-113 68z"/>
</g>
</svg>
