<?xml version="1.0" standalone="no"?>
<!DOCTYPE svg PUBLIC "-//W3C//DTD SVG 20010904//EN"
 "http://www.w3.org/TR/2001/REC-SVG-20010904/DTD/svg10.dtd">
<svg version="1.0" xmlns="http://www.w3.org/2000/svg"
 width="357.000000pt" height="348.000000pt" viewBox="0 0 357.000000 348.000000"
 preserveAspectRatio="xMidYMid meet">

<g transform="translate(0.000000,348.000000) scale(0.100000,-0.100000)"
fill="#345f13" stroke="none">
<path d="M1711 3066 c-8 -9 -11 -79 -9 -231 3 -195 5 -219 21 -229 12 -8 22
-8 35 0 15 10 17 34 20 229 2 225 -1 245 -38 245 -10 0 -23 -6 -29 -14z"/>
<path d="M1396 2854 c-12 -12 -16 -38 -16 -115 0 -111 9 -139 45 -139 36 0 45
28 45 139 0 102 -10 131 -45 131 -7 0 -21 -7 -29 -16z"/>
<path d="M2026 2854 c-12 -12 -16 -38 -16 -115 0 -111 9 -139 45 -139 36 0 45
28 45 139 0 102 -10 131 -45 131 -7 0 -21 -7 -29 -16z"/>
<path d="M1597 2505 c-226 -57 -404 -242 -452 -470 -79 -375 210 -729 595
-729 332 0 610 275 610 604 0 134 -65 305 -155 407 -59 67 -168 139 -258 171
-90 31 -250 40 -340 17z m308 -96 c160 -49 296 -193 340 -360 20 -72 19 -212
-1 -280 -53 -180 -215 -333 -392 -370 -79 -16 -223 -7 -292 20 -155 59 -278
192 -324 350 -20 68 -21 208 -1 280 52 195 216 345 418 381 69 12 175 3 252
-21z"/>
<path d="M1706 2294 c-9 -8 -16 -29 -16 -45 0 -16 -5 -29 -12 -29 -23 0 -81
-54 -99 -94 -24 -53 -24 -100 1 -151 27 -56 68 -84 148 -100 78 -17 102 -39
102 -96 0 -56 -35 -94 -89 -94 -49 0 -74 22 -94 79 -16 48 -39 66 -65 50 -51
-32 1 -162 78 -194 23 -10 30 -19 30 -40 0 -30 22 -60 45 -60 21 0 45 29 45
56 0 17 10 29 38 43 46 23 67 46 87 94 21 50 19 93 -6 145 -27 55 -80 91 -147
99 -79 9 -109 44 -102 118 3 37 46 70 90 70 48 0 80 -28 95 -82 12 -44 37 -63
63 -47 55 35 -8 172 -95 205 -15 6 -23 17 -23 33 0 27 -23 56 -45 56 -7 0 -21
-7 -29 -16z"/>
<path d="M623 1355 c-16 -12 -18 -49 -27 -394 -7 -287 -6 -384 2 -394 9 -11
54 -15 190 -19 98 -3 185 -1 195 4 10 5 17 20 17 37 0 24 8 33 59 60 35 18 74
31 95 31 20 0 159 -34 309 -77 305 -85 377 -95 490 -69 92 22 114 34 522 299
404 262 395 253 329 321 -74 76 -154 86 -274 32 -41 -18 -126 -57 -187 -86
l-113 -53 -39 45 c-70 79 -112 90 -351 98 l-205 6 -90 41 c-126 57 -166 67
-275 66 -89 0 -129 -8 -232 -48 -16 -6 -18 -1 -18 38 0 24 -6 49 -12 55 -21
16 -364 22 -385 7z m310 -215 c-2 -74 -6 -220 -9 -323 l-6 -188 -122 3 -121 3
3 180 c1 99 5 244 8 323 l6 143 122 -3 121 -3 -2 -135z m452 69 c22 -6 80 -29
129 -51 l89 -41 201 -9 c250 -11 259 -12 302 -50 32 -28 64 -76 64 -95 0 -4
-102 -5 -227 -2 -128 3 -236 2 -245 -3 -10 -5 -18 -20 -18 -33 0 -13 8 -28 18
-33 29 -16 530 -26 547 -12 8 7 15 29 15 50 l0 37 185 88 c160 75 191 87 222
82 20 -4 43 -13 51 -21 17 -17 40 0 -385 -274 -342 -220 -374 -236 -503 -235
-62 1 -120 14 -345 79 -300 86 -349 92 -427 57 l-48 -22 0 117 c0 64 3 161 7
215 6 97 6 98 37 114 92 49 239 67 331 42z"/>
</g>
</svg>
