<svg width="23" height="20" viewBox="0 0 23 20" fill="none" xmlns="http://www.w3.org/2000/svg">
<path d="M20.2075 4.4528C21.3926 4.4528 22.3377 5.3835 22.3042 6.48342L21.9745 17.3134C21.9397 18.4556 20.9392 19.344 19.7541 19.344L2.95139 19.344C1.42772 19.344 0.278705 18.1595 0.325075 16.6365L0.737252 3.09905C0.782334 1.61839 2.00477 0.391553 3.52844 0.391553L19.1038 0.391553C20.2042 0.391553 21.107 1.32225 21.0735 2.42217C21.0619 2.80292 20.7143 3.09905 20.3757 3.09905L4.12319 3.09905C3.74227 3.09905 3.4357 3.43749 3.42539 3.77592C3.4138 4.15666 3.70105 4.4528 4.08197 4.4528L20.2075 4.4528ZM18.035 13.2522C18.7545 13.2522 19.4074 12.6599 19.4306 11.8984C19.4525 11.1792 18.8369 10.5447 18.1174 10.5447C17.3556 10.5447 16.7437 11.1792 16.7218 11.8984C16.6987 12.6599 17.2732 13.2522 18.035 13.2522Z" fill="#fff"/>
</svg>
