<?xml version="1.0" standalone="no"?>
<!DOCTYPE svg PUBLIC "-//W3C//DTD SVG 20010904//EN"
 "http://www.w3.org/TR/2001/REC-SVG-20010904/DTD/svg10.dtd">
<svg version="1.0" xmlns="http://www.w3.org/2000/svg"
 width="333.000000pt" height="313.000000pt" viewBox="0 0 333.000000 313.000000"
 preserveAspectRatio="xMidYMid meet">

<g transform="translate(0.000000,313.000000) scale(0.100000,-0.100000)"
fill="#345f13" stroke="none">
<path d="M1509 2744 c-164 -29 -327 -96 -474 -193 -90 -59 -247 -216 -306
-306 -241 -363 -276 -797 -95 -1180 l43 -91 -83 -299 c-46 -165 -82 -303 -81
-306 1 -4 142 30 314 75 l311 82 44 -22 c67 -34 209 -81 300 -101 102 -21 321
-23 428 -4 745 134 1180 915 900 1618 -151 380 -504 662 -910 728 -115 18
-288 18 -391 -1z m441 -214 c106 -27 265 -103 350 -168 480 -364 529 -1063
105 -1487 -303 -303 -755 -376 -1141 -185 l-102 51 -176 -47 c-98 -25 -179
-44 -182 -41 -3 3 15 82 41 176 l46 172 -60 122 c-85 170 -105 259 -105 452 0
125 4 164 23 235 104 386 399 661 788 735 108 20 301 13 413 -15z"/>
<path d="M1212 2086 c-50 -45 -90 -120 -103 -192 -20 -110 21 -233 126 -379
180 -250 371 -398 620 -481 97 -32 119 -36 182 -32 164 11 282 123 271 256 -3
37 -4 37 -131 99 -70 35 -138 65 -150 68 -19 5 -33 -6 -86 -70 -34 -42 -69
-79 -77 -82 -19 -7 -157 59 -219 106 -27 21 -72 60 -99 87 -49 50 -136 170
-136 189 0 6 23 41 50 79 28 38 50 75 50 82 0 18 -96 250 -116 282 -13 19 -23
22 -79 22 -60 0 -68 -3 -103 -34z"/>
</g>
</svg>
